<mxfile host="Electron" agent="Mozilla/5.0 (Windows NT 10.0; Win64; x64) AppleWebKit/537.36 (KHTML, like Gecko) draw.io/24.7.8 Chrome/128.0.6613.36 Electron/32.0.1 Safari/537.36" version="24.7.8">
  <diagram name="Page-1" id="SLJf9hFDPUjrdSc63lsi">
    <mxGraphModel dx="1709" dy="2790" grid="1" gridSize="10" guides="1" tooltips="1" connect="1" arrows="1" fold="1" page="1" pageScale="1" pageWidth="850" pageHeight="1100" math="0" shadow="0">
      <root>
        <mxCell id="0" />
        <mxCell id="1" parent="0" />
        <mxCell id="QF-CNEld1nqOy2y841Vl-1" value="Value (Return)" style="endArrow=classic;html=1;rounded=0;horizontal=0;" edge="1" parent="1">
          <mxGeometry width="50" height="50" relative="1" as="geometry">
            <mxPoint x="560" y="-102" as="sourcePoint" />
            <mxPoint x="560" y="-272" as="targetPoint" />
          </mxGeometry>
        </mxCell>
        <mxCell id="QF-CNEld1nqOy2y841Vl-2" value="Effort (Investment)" style="endArrow=classic;html=1;rounded=0;" edge="1" parent="1">
          <mxGeometry width="50" height="50" relative="1" as="geometry">
            <mxPoint x="560" y="-102" as="sourcePoint" />
            <mxPoint x="780" y="-102" as="targetPoint" />
          </mxGeometry>
        </mxCell>
        <mxCell id="QF-CNEld1nqOy2y841Vl-3" value="" style="curved=1;endArrow=classic;html=1;rounded=0;fontColor=#000000;strokeColor=#0000FF;" edge="1" parent="1">
          <mxGeometry width="50" height="50" relative="1" as="geometry">
            <mxPoint x="560" y="-102" as="sourcePoint" />
            <mxPoint x="760" y="-82" as="targetPoint" />
            <Array as="points">
              <mxPoint x="680" y="-412" />
            </Array>
          </mxGeometry>
        </mxCell>
      </root>
    </mxGraphModel>
  </diagram>
</mxfile>
